<mxfile host="app.diagrams.net" modified="2023-04-10T15:39:34.916Z" agent="Mozilla/5.0 (Windows NT 10.0; Win64; x64) AppleWebKit/537.36 (KHTML, like Gecko) Chrome/111.0.0.0 Safari/537.36" etag="pHCMeSNssgGI3tMQeo3s" version="21.1.5" type="github">
  <diagram id="C5RBs43oDa-KdzZeNtuy" name="Page-1">
    <mxGraphModel dx="1674" dy="756" grid="1" gridSize="10" guides="1" tooltips="1" connect="1" arrows="1" fold="1" page="1" pageScale="1" pageWidth="827" pageHeight="1169" math="0" shadow="0">
      <root>
        <mxCell id="WIyWlLk6GJQsqaUBKTNV-0" />
        <mxCell id="WIyWlLk6GJQsqaUBKTNV-1" parent="WIyWlLk6GJQsqaUBKTNV-0" />
        <mxCell id="ySHUp40IwxfhOntRPwX8-0" value="&lt;font style=&quot;font-size: 18px;&quot;&gt;Client&lt;/font&gt;" style="shape=cylinder3;whiteSpace=wrap;html=1;boundedLbl=1;backgroundOutline=1;size=15;" parent="WIyWlLk6GJQsqaUBKTNV-1" vertex="1">
          <mxGeometry x="50" y="40" width="120" height="240" as="geometry" />
        </mxCell>
        <mxCell id="ySHUp40IwxfhOntRPwX8-5" value="&lt;font style=&quot;font-size: 18px;&quot;&gt;Server&lt;/font&gt;" style="shape=cylinder3;whiteSpace=wrap;html=1;boundedLbl=1;backgroundOutline=1;size=15;" parent="WIyWlLk6GJQsqaUBKTNV-1" vertex="1">
          <mxGeometry x="670" y="40" width="120" height="240" as="geometry" />
        </mxCell>
        <mxCell id="ySHUp40IwxfhOntRPwX8-6" value="" style="shape=flexArrow;endArrow=classic;html=1;rounded=0;exitX=1.017;exitY=0.168;exitDx=0;exitDy=0;exitPerimeter=0;entryX=-0.021;entryY=0.172;entryDx=0;entryDy=0;entryPerimeter=0;" parent="WIyWlLk6GJQsqaUBKTNV-1" source="ySHUp40IwxfhOntRPwX8-0" target="ySHUp40IwxfhOntRPwX8-5" edge="1">
          <mxGeometry width="50" height="50" relative="1" as="geometry">
            <mxPoint x="210" y="130" as="sourcePoint" />
            <mxPoint x="260" y="80" as="targetPoint" />
          </mxGeometry>
        </mxCell>
        <mxCell id="ySHUp40IwxfhOntRPwX8-7" value="HTTP Request Handshake to Upgrade the protocol" style="edgeLabel;html=1;align=center;verticalAlign=middle;resizable=0;points=[];" parent="ySHUp40IwxfhOntRPwX8-6" vertex="1" connectable="0">
          <mxGeometry x="-0.1647" relative="1" as="geometry">
            <mxPoint x="21" y="-11" as="offset" />
          </mxGeometry>
        </mxCell>
        <mxCell id="ySHUp40IwxfhOntRPwX8-9" value="" style="shape=flexArrow;endArrow=classic;html=1;rounded=0;exitX=-0.002;exitY=0.391;exitDx=0;exitDy=0;exitPerimeter=0;entryX=1.008;entryY=0.388;entryDx=0;entryDy=0;entryPerimeter=0;" parent="WIyWlLk6GJQsqaUBKTNV-1" source="ySHUp40IwxfhOntRPwX8-5" target="ySHUp40IwxfhOntRPwX8-0" edge="1">
          <mxGeometry width="50" height="50" relative="1" as="geometry">
            <mxPoint x="420" y="240" as="sourcePoint" />
            <mxPoint x="470" y="190" as="targetPoint" />
          </mxGeometry>
        </mxCell>
      </root>
    </mxGraphModel>
  </diagram>
</mxfile>
